<svg width="116" height="20" viewBox="0 0 116 20" fill="none" xmlns="http://www.w3.org/2000/svg">
<path d="M2.53097 18.3483C1.22145 18.1697 0.425316 17.4777 0.142578 16.2724L0.1649 16.0269C0.224423 15.8483 0.291388 15.6474 0.365792 15.4242C0.440197 15.1712 0.522042 14.9257 0.611328 14.6876C0.700614 14.4346 0.849423 14.2114 1.05776 14.0179C1.1024 13.884 1.18424 13.6831 1.30329 13.4152C1.43722 13.1325 1.65299 12.7158 1.95061 12.1652C2.18871 11.7337 2.37472 11.3914 2.50865 11.1385C2.65746 10.8855 2.77651 10.692 2.86579 10.5581C2.71698 10.2902 2.50865 10.0298 2.24079 9.77686C2.0027 9.33043 1.79436 8.90632 1.61579 8.50453C1.4521 8.08787 1.32561 7.71584 1.23633 7.38846C1.22145 7.03132 1.16192 6.66674 1.05776 6.29471C1.01311 6.10126 0.968471 5.90781 0.923828 5.71436C0.879185 5.5209 0.856864 5.32001 0.856864 5.11168C0.79734 5.00751 0.745257 4.87358 0.700614 4.70989L0.745257 4.44203C0.819661 4.32299 0.834542 4.16674 0.7899 3.97328C0.760138 3.76495 0.715495 3.55662 0.655971 3.34828C0.611328 3.15483 0.566685 2.95394 0.522042 2.74561C0.492281 2.52239 0.48484 2.30662 0.499721 2.09828C0.514602 1.88995 0.566685 1.68906 0.655971 1.49561C0.760138 1.30215 0.931269 1.13846 1.16936 1.00453L1.39258 0.848284L1.61579 0.982213C1.77948 1.08638 1.93573 1.17566 2.08454 1.25007C2.23335 1.32447 2.38216 1.39888 2.53097 1.47328C2.70954 1.56257 2.88811 1.6593 3.06669 1.76346C3.24526 1.85275 3.43871 1.95692 3.64704 2.07596L3.87026 2.23221L3.84794 2.47775C3.84794 2.50751 3.85538 2.54471 3.87026 2.58936C3.88514 2.634 3.90746 2.6712 3.93722 2.70096L4.18276 2.76793L4.20508 3.08043V3.34828C4.20508 3.48221 4.21252 3.57894 4.2274 3.63846C4.24228 3.68311 4.27204 3.73519 4.31669 3.79471L4.42829 4.08489C4.42829 4.35275 4.45061 4.59084 4.49526 4.79918C4.5399 5.00751 4.59198 5.21584 4.65151 5.42418C4.72591 5.63251 4.78544 5.84828 4.83008 6.0715C4.87472 6.27983 4.88216 6.51049 4.8524 6.76346C4.94169 6.71882 5.03097 6.65186 5.12026 6.56257C5.15002 6.53281 5.17978 6.50305 5.20954 6.47328C5.25419 6.44352 5.29883 6.41376 5.34347 6.384L6.90597 4.26346L6.86133 3.99561L7.41936 3.45989C7.56817 3.34084 7.70954 3.2218 7.84347 3.10275C7.9774 2.96882 8.08901 2.82001 8.17829 2.65632L8.31222 2.45543C8.98186 1.56257 9.84496 1.01197 10.9015 0.803641L11.281 0.714355L11.3926 1.0715C11.467 1.27983 11.6084 1.46584 11.8167 1.62953C12.0399 1.77834 12.278 1.92715 12.531 2.07596L12.7765 2.23221C12.8658 2.41078 12.9104 2.54471 12.9104 2.634C12.9104 2.72328 12.903 2.79769 12.8881 2.85721L12.9997 3.14739C12.836 3.57894 12.6575 3.89144 12.464 4.08489C12.2706 4.26346 12.0697 4.43459 11.8613 4.59828C11.6976 4.73221 11.5488 4.86614 11.4149 5.00007C11.281 5.134 11.1768 5.28281 11.1024 5.4465L10.9238 5.66971C10.5518 5.86316 10.3137 6.1459 10.2095 6.51793L10.1203 6.83043H9.78544C9.77055 6.83043 9.73335 6.86763 9.67383 6.94203C9.6143 7.00156 9.52502 7.15781 9.40597 7.41078C9.27204 7.58936 9.17532 7.7084 9.11579 7.76793C9.07115 7.81257 9.03395 7.84977 9.00419 7.87953C8.97442 7.95394 8.94466 8.0209 8.9149 8.08043C8.90002 8.13995 8.8777 8.21436 8.84794 8.30364L8.71401 8.48221C8.58008 8.60126 8.48335 8.72031 8.42383 8.83936C8.3643 8.94352 8.29734 9.07001 8.22294 9.21882C8.16341 9.35275 8.09645 9.49412 8.02204 9.64293C7.94764 9.77686 7.84347 9.91078 7.70954 10.0447L7.75419 10.2902L7.57561 10.4465C7.45657 10.5507 7.3524 10.6846 7.26311 10.8483C7.17383 10.9971 7.08454 11.1533 6.99526 11.317C6.90597 11.4956 6.80925 11.6742 6.70508 11.8527C6.60091 12.0313 6.46698 12.195 6.30329 12.3438C6.19913 12.6117 6.1024 12.82 6.01311 12.9688C5.93871 13.1176 5.80478 13.2962 5.61133 13.5045C5.43276 14.2188 5.00865 14.9852 4.33901 15.8036C4.32413 15.9673 4.27204 16.131 4.18276 16.2947C4.10835 16.4435 4.02651 16.5849 3.93722 16.7188C3.90746 16.7783 3.87026 16.8453 3.82561 16.9197C3.79585 16.9792 3.77353 17.0239 3.75865 17.0536L3.69169 17.2992C3.6024 17.4629 3.50567 17.5968 3.40151 17.701C3.31222 17.8051 3.22294 17.9019 3.13365 17.9911C3.08901 18.0209 3.04436 18.0581 2.99972 18.1027C2.96996 18.1474 2.9402 18.1846 2.91044 18.2144L2.53097 18.3483Z" fill="#303030"/>
<path d="M47.6836 4.91078C47.7134 5.23816 47.7655 5.5209 47.8399 5.759C47.9143 5.99709 47.9961 6.22775 48.0854 6.45096C48.1598 6.6593 48.2268 6.86763 48.2863 7.07596C48.3607 7.26942 48.4128 7.50751 48.4426 7.79025C48.3235 8.17715 48.2342 8.5343 48.1747 8.86168C48.1301 9.18906 48.078 9.53132 48.0185 9.88846C47.7804 10.4093 47.5497 10.8706 47.3265 11.2724C47.1033 11.6742 46.9247 12.0239 46.7908 12.3215C46.7164 12.3959 46.6494 12.4852 46.5899 12.5894C46.5453 12.6786 46.4932 12.7754 46.4336 12.8795C46.4039 12.9242 46.3667 12.9911 46.322 13.0804C46.2774 13.1697 46.2402 13.2292 46.2104 13.259L45.764 13.1027L45.6747 13.6608L45.3622 13.7501L45.139 14.0179C44.8563 14.509 44.5586 14.9257 44.2461 15.2679C43.9336 15.5953 43.5765 15.8929 43.1747 16.1608C42.7878 16.4138 42.3414 16.6519 41.8354 16.8751C41.3444 17.0983 40.7863 17.3438 40.1613 17.6117C39.9084 17.5819 39.6851 17.567 39.4917 17.567C39.3131 17.5522 39.142 17.5373 38.9783 17.5224C38.6956 17.5224 38.3459 17.5001 37.9292 17.4554C37.8845 17.3364 37.8176 17.2545 37.7283 17.2099C37.639 17.1652 37.5572 17.1429 37.4828 17.1429C37.2298 17.0239 37.0363 16.8527 36.9024 16.6295C36.7834 16.3914 36.6643 16.1385 36.5453 15.8706C36.4709 15.7069 36.3964 15.5581 36.322 15.4242C36.2476 15.2754 36.1658 15.1266 36.0765 14.9777L36.456 14.8661L35.9649 14.3304C35.9351 14.2858 35.8979 14.2486 35.8533 14.2188C35.8087 14.1742 35.7714 14.1295 35.7417 14.0849L35.7194 13.7277C35.6747 12.701 35.6524 11.7635 35.6524 10.9152C35.6673 10.0522 35.7863 9.28578 36.0095 8.61614V8.37061C36.0542 8.04322 36.0988 7.77537 36.1435 7.56703C36.1881 7.34382 36.2253 7.13549 36.2551 6.94203C36.2997 6.61465 36.3667 6.30959 36.456 6.02686C36.6643 5.98221 36.8206 5.90037 36.9247 5.78132C37.0289 5.64739 37.1182 5.52834 37.1926 5.42418C37.4009 5.4093 37.5423 5.43906 37.6167 5.51346C37.6911 5.58787 37.7655 5.70691 37.8399 5.87061C37.9143 6.00453 38.0036 6.15334 38.1078 6.31703C38.2268 6.48072 38.3979 6.60721 38.6212 6.6965C38.6509 6.81555 38.6881 6.94203 38.7328 7.07596C38.7923 7.19501 38.8518 7.32894 38.9113 7.47775C39.0304 7.73072 39.1345 7.99858 39.2238 8.28132C39.328 8.54918 39.3875 8.80959 39.4024 9.06257C39.2536 9.34531 39.1345 9.67269 39.0453 10.0447C38.9709 10.4167 38.9188 10.7962 38.889 11.1831C38.8741 11.5551 38.8816 11.9197 38.9113 12.2769C38.956 12.6191 39.0229 12.9093 39.1122 13.1474L39.2462 13.4376L39.6256 13.3929C40.072 13.2739 40.4738 13.1474 40.831 13.0135C41.203 12.8647 41.5453 12.6935 41.8578 12.5001C42.1703 12.3066 42.4679 12.0834 42.7506 11.8304C43.0333 11.5626 43.331 11.2575 43.6435 10.9152C43.956 10.573 44.2238 10.1861 44.447 9.75453C44.6851 9.30811 44.8786 8.8468 45.0274 8.37061C45.1911 7.89442 45.3101 7.42566 45.3845 6.96436C45.4738 6.48816 45.5333 6.04174 45.5631 5.62507C45.8161 5.53578 45.9426 5.35721 45.9426 5.08936L45.8979 4.84382C45.8384 4.75453 45.8384 4.65037 45.8979 4.53132C45.9872 4.24858 46.1956 4.03281 46.5229 3.884C46.761 4.03281 46.9694 4.1965 47.1479 4.37507C47.3414 4.55364 47.52 4.73221 47.6836 4.91078Z" fill="#303030"/>
<path d="M52.3926 15.2902C52.2289 15.8855 52.0801 16.3394 51.9462 16.6519C51.8271 16.9495 51.6411 17.262 51.3881 17.5894C51.1947 17.5596 51.0607 17.5819 50.9863 17.6563C50.9119 17.7307 50.8301 17.7977 50.7408 17.8572C50.6069 17.887 50.5101 17.887 50.4506 17.8572C50.3911 17.8275 50.339 17.7902 50.2944 17.7456C50.2497 17.7158 50.1902 17.6786 50.1158 17.634C50.0563 17.6042 49.9595 17.5894 49.8256 17.5894C49.7959 17.4703 49.7587 17.3587 49.714 17.2545C49.6842 17.1504 49.5875 17.1132 49.4238 17.1429C49.4536 17.0239 49.461 16.9272 49.4462 16.8527C49.4313 16.7635 49.409 16.6891 49.3792 16.6295C49.3643 16.5551 49.3494 16.4882 49.3345 16.4286C49.3197 16.3542 49.3271 16.265 49.3569 16.1608C49.2825 16.1608 49.2229 16.1087 49.1783 16.0045C49.1337 15.9004 49.0816 15.7962 49.022 15.692C49.0667 15.4242 49.1113 15.1712 49.156 14.9331C49.2006 14.695 49.2527 14.4718 49.3122 14.2635C49.3866 14.0551 49.4462 13.8468 49.4908 13.6385C49.5354 13.4301 49.5131 13.2144 49.4238 12.9911C49.4834 13.0358 49.528 13.0283 49.5578 12.9688C49.5875 12.8944 49.6098 12.8051 49.6247 12.701C49.6396 12.5819 49.647 12.4703 49.647 12.3661C49.647 12.2471 49.6396 12.1504 49.6247 12.076C49.7735 11.6891 49.8926 11.2947 49.9819 10.8929C50.086 10.4763 50.1753 10.067 50.2497 9.66525C50.339 9.26346 50.4283 8.86912 50.5176 8.48221C50.6069 8.09531 50.7259 7.73817 50.8747 7.41078C51.0384 7.38102 51.217 7.40334 51.4104 7.47775C51.6188 7.53727 51.7453 7.61912 51.7899 7.72328C52.1768 7.42567 52.5191 7.06852 52.8167 6.65186C53.1143 6.22031 53.4194 5.80364 53.7319 5.40186C54.0444 5.00007 54.3866 4.64293 54.7587 4.33043C55.1456 4.01793 55.6292 3.83192 56.2095 3.77239C56.5072 3.99561 56.8345 4.22626 57.1917 4.46436C57.5637 4.68757 57.8688 4.98519 58.1069 5.35721C58.2259 5.41674 58.3226 5.4837 58.397 5.55811C58.4863 5.61763 58.5905 5.68459 58.7095 5.759V6.02686C58.8881 6.19055 59.0295 6.384 59.1337 6.60721C59.2527 6.81555 59.3569 7.0462 59.4462 7.29918C59.5354 7.53727 59.6247 7.78281 59.714 8.03578C59.8033 8.27388 59.9075 8.50453 60.0265 8.72775C59.9967 8.80215 59.9819 8.86912 59.9819 8.92864C59.9819 8.97328 59.9893 9.02537 60.0042 9.08489C60.034 9.14441 60.0563 9.20394 60.0712 9.26346C60.086 9.32299 60.086 9.40483 60.0712 9.509C60.0265 10.1638 59.8107 10.692 59.4238 11.0938C59.0518 11.4956 58.5979 11.8304 58.0622 12.0983C57.5265 12.3513 56.9536 12.567 56.3435 12.7456C55.7334 12.9242 55.1828 13.1176 54.6917 13.326C54.6917 13.3855 54.714 13.4152 54.7587 13.4152C54.8182 13.4152 54.8405 13.4525 54.8256 13.5269C55.1828 13.7501 55.4655 13.9286 55.6738 14.0626C55.8822 14.1965 56.0756 14.3081 56.2542 14.3974C56.4476 14.4867 56.6485 14.5685 56.8569 14.6429C57.0801 14.7025 57.3851 14.7769 57.772 14.8661C58.159 14.9554 58.4566 15.0298 58.6649 15.0894C58.8881 15.134 59.089 15.1786 59.2676 15.2233C59.4462 15.253 59.6247 15.2828 59.8033 15.3126C59.9967 15.3275 60.2646 15.3498 60.6069 15.3795C60.7408 15.5135 60.8524 15.6772 60.9417 15.8706C61.0459 16.0492 61.1128 16.2352 61.1426 16.4286C61.1723 16.6072 61.1798 16.7858 61.1649 16.9644C61.15 17.128 61.0979 17.262 61.0087 17.3661C61.0235 17.4108 61.0533 17.4331 61.0979 17.4331C61.1575 17.4182 61.217 17.4182 61.2765 17.4331C61.1872 17.4926 61.1128 17.567 61.0533 17.6563C60.9938 17.7456 60.9342 17.8349 60.8747 17.9242C60.8152 18.0135 60.7482 18.0879 60.6738 18.1474C60.5994 18.2218 60.4953 18.2664 60.3613 18.2813C59.9 18.4599 59.3197 18.4673 58.6203 18.3036C57.9209 18.1548 57.0354 17.8721 55.964 17.4554C55.4283 17.2471 54.9893 17.0685 54.647 16.9197C54.3197 16.756 54.0295 16.5998 53.7765 16.451C53.5384 16.2873 53.3152 16.1161 53.1069 15.9376C52.9134 15.759 52.6753 15.5432 52.3926 15.2902ZM55.5845 7.634C55.4209 7.87209 55.2348 8.08787 55.0265 8.28132C54.8331 8.47477 54.6396 8.67567 54.4462 8.884C54.2676 9.07745 54.1039 9.30066 53.9551 9.55364C53.8063 9.79174 53.7021 10.0745 53.6426 10.4019C54.1634 10.3423 54.7066 10.201 55.272 9.97775C55.8375 9.73965 56.3732 9.51644 56.8792 9.30811C56.8197 8.8468 56.656 8.47477 56.3881 8.19203C56.1351 7.9093 55.8673 7.72328 55.5845 7.634Z" fill="#303030"/>
<path d="M71.9392 11.785C71.9553 11.7208 71.9874 11.6968 72.0355 11.7128C72.0997 11.7128 72.1558 11.7048 72.204 11.6888C72.0756 11.5604 71.9954 11.3919 71.9633 11.1834C71.9312 10.9588 71.851 10.7743 71.7227 10.6299C71.7547 10.5497 71.7788 10.4694 71.7949 10.3892C71.8269 10.309 71.8991 10.2769 72.0114 10.293C71.9633 9.94001 71.9713 9.61112 72.0355 9.30629C72.0997 9.00146 72.1959 8.71268 72.3243 8.43994C72.4687 8.1672 72.6291 7.90248 72.8056 7.64579C72.9981 7.37305 73.1826 7.10031 73.3591 6.82757C73.5035 6.79548 73.5917 6.81152 73.6238 6.8757C73.6559 6.92383 73.7121 6.90778 73.7923 6.82757C74.049 6.65109 74.2254 6.45857 74.3217 6.25C74.418 6.02539 74.4661 5.78474 74.4661 5.52804C74.6105 5.11091 74.7709 4.7018 74.9474 4.30071C75.1399 3.88358 75.3565 3.49853 75.5972 3.14558C75.8378 2.79262 76.0945 2.48779 76.3673 2.2311C76.64 1.95836 76.9368 1.74979 77.2577 1.6054C77.4823 1.41288 77.763 1.2364 78.1 1.07596C78.4529 0.915527 78.8219 0.795201 79.207 0.714983C79.608 0.618722 80.0172 0.570592 80.4343 0.570592C80.8514 0.554548 81.2365 0.594657 81.5894 0.690918C81.6696 0.723005 81.7178 0.706961 81.7338 0.642787C81.7499 0.56257 81.79 0.522461 81.8541 0.522461C82.6563 0.618722 83.3703 0.779157 83.996 1.00377C84.6377 1.22838 85.1832 1.54122 85.6324 1.94231C85.9372 2.42362 86.226 2.94503 86.4987 3.50656C86.7715 4.05204 86.98 4.6296 87.1244 5.23926C87.2849 5.83287 87.3571 6.45054 87.341 7.09228C87.325 7.73403 87.1886 8.37577 86.9319 9.01751C86.3704 9.72342 85.6885 10.293 84.8864 10.7261C84.0842 11.1433 83.2178 11.4962 82.2873 11.785C81.3728 12.0578 80.4182 12.2824 79.4235 12.4588C78.4449 12.6353 77.4903 12.8278 76.5598 13.0364C76.5758 13.4696 76.5758 13.9348 76.5598 14.4322C76.5437 14.9135 76.4876 15.4028 76.3913 15.9002C76.3111 16.3815 76.1828 16.8548 76.0063 17.32C75.8458 17.7853 75.6212 18.2185 75.3324 18.6196C75.0116 18.6035 74.6747 18.6356 74.3217 18.7158C73.9848 18.796 73.68 18.8763 73.4072 18.9565C73.2789 18.8763 73.1505 18.796 73.0222 18.7158C72.9099 18.6516 72.7655 18.6115 72.589 18.5955C72.6371 18.403 72.589 18.2024 72.4446 17.9939C72.3163 17.7853 72.1799 17.5848 72.0355 17.3922C71.9072 17.1837 71.8189 16.9831 71.7708 16.7906C71.7387 16.582 71.835 16.3975 72.0596 16.2371C71.9312 16.1248 71.867 15.9483 71.867 15.7077C71.9312 15.7718 72.0114 15.8039 72.1077 15.8039C72.0756 15.5151 72.1077 15.1702 72.204 14.7691C72.3163 14.368 72.4045 13.975 72.4687 13.5899C72.5489 13.1888 72.5649 12.8278 72.5168 12.507C72.4687 12.1701 72.2762 11.9294 71.9392 11.785ZM78.1962 6.15374C78.132 6.33022 78.0759 6.49065 78.0278 6.63504C77.9957 6.76339 77.9556 6.88372 77.9074 6.99602C77.8593 7.10833 77.8032 7.22063 77.739 7.33294C77.6908 7.44524 77.6347 7.57359 77.5705 7.71798C77.6026 7.81424 77.6668 7.88644 77.763 7.93457C77.8593 7.9827 77.9235 8.0549 77.9556 8.15116C78.1802 8.03885 78.4048 7.95864 78.6294 7.9105C78.854 7.84633 79.0786 7.7982 79.3032 7.76611C79.5278 7.73403 79.7524 7.69392 79.977 7.64579C80.2017 7.59766 80.4343 7.51744 80.6749 7.40513C80.9156 7.29283 81.1643 7.20459 81.421 7.14042C81.6937 7.0602 81.9584 6.97998 82.2151 6.89976C82.4718 6.81954 82.7205 6.73131 82.9611 6.63504C83.2018 6.52274 83.4104 6.37835 83.5868 6.20187C83.3622 5.9933 83.0253 5.8088 82.5761 5.64837C82.1269 5.48793 81.6376 5.39167 81.1081 5.35958C80.5947 5.31145 80.0733 5.34354 79.5439 5.45585C79.0305 5.56815 78.5813 5.80078 78.1962 6.15374Z" fill="#303030"/>
<path d="M100.048 5.02267C100.064 5.13497 100.064 5.22321 100.048 5.28739C100.048 5.33552 100.039 5.38365 100.023 5.43178C100.023 5.47991 100.023 5.53606 100.023 5.60024C100.023 5.64837 100.039 5.72859 100.072 5.84089C99.7347 6.38637 99.3416 6.76339 98.8924 6.97196C98.4592 7.16448 97.9859 7.30887 97.4725 7.40513C96.9591 7.48535 96.4297 7.57359 95.8842 7.66985C95.3548 7.76611 94.8253 7.97468 94.2959 8.29555C94.0873 8.21533 93.8948 8.21533 93.7183 8.29555C93.5579 8.37577 93.3172 8.39983 92.9964 8.36774C92.9001 8.46401 92.7798 8.5362 92.6354 8.58433C92.491 8.61642 92.3466 8.65653 92.2022 8.70466C92.2664 8.84905 92.2905 9.00146 92.2744 9.1619C92.2744 9.30629 92.2985 9.42662 92.3466 9.52288C92.9081 9.57101 93.5258 9.56299 94.1996 9.49881C94.8895 9.43464 95.5633 9.39453 96.2211 9.37849C96.2372 9.4587 96.2291 9.51486 96.1971 9.54694C96.165 9.56299 96.1569 9.6031 96.173 9.66727C96.2853 9.74749 96.3976 9.85177 96.5099 9.98012C96.6222 10.0924 96.7345 10.2047 96.8468 10.317C96.9591 10.4293 97.0714 10.5256 97.1837 10.6058C97.3121 10.67 97.4565 10.6941 97.6169 10.678C97.6811 10.8064 97.7212 10.9508 97.7372 11.1112C97.7693 11.2556 97.7533 11.408 97.6891 11.5684C97.4324 11.7449 97.1757 11.9294 96.919 12.1219C96.6623 12.2984 96.3896 12.4588 96.1008 12.6032C95.8281 12.7476 95.5312 12.868 95.2104 12.9642C94.9056 13.0444 94.5606 13.0765 94.1756 13.0605C94.0954 13.0605 94.0312 13.0605 93.983 13.0605C93.951 13.0605 93.9028 13.0364 93.8387 12.9883C93.7103 13.0685 93.5258 13.0926 93.2852 13.0605C93.0605 13.0284 92.8841 13.0525 92.7557 13.1327C92.5792 13.0525 92.3627 13.0204 92.106 13.0364C91.8653 13.0364 91.6487 13.0043 91.4562 12.9402C91.1995 13.2771 90.9669 13.638 90.7583 14.0231C90.5497 14.4081 90.3652 14.8172 90.2048 15.2504C90.7503 15.3306 91.1995 15.3627 91.5525 15.3467C91.9215 15.3306 92.2664 15.3066 92.5873 15.2745C92.9081 15.2264 93.237 15.1862 93.5739 15.1542C93.9109 15.106 94.336 15.09 94.8494 15.106C95.1703 14.9295 95.5473 14.8172 95.9805 14.7691C96.4297 14.7049 96.8388 14.6087 97.2078 14.4803C97.3361 14.5285 97.4485 14.6167 97.5447 14.745C97.641 14.8574 97.7292 14.9697 97.8094 15.082C97.9057 15.1782 98.002 15.2665 98.0982 15.3467C98.1945 15.4269 98.3148 15.459 98.4592 15.4429C98.5234 15.5071 98.5635 15.5873 98.5795 15.6836C98.6116 15.7638 98.6357 15.844 98.6517 15.9242C98.6678 16.0045 98.6918 16.0767 98.7239 16.1408C98.772 16.189 98.8442 16.205 98.9405 16.189C98.6998 16.7184 98.4191 17.1275 98.0982 17.4163C97.7934 17.689 97.4404 17.8976 97.0393 18.042C96.6383 18.1864 96.189 18.2987 95.6917 18.3789C95.2104 18.4591 94.6729 18.5554 94.0793 18.6677C93.9349 18.6998 93.8146 18.6918 93.7183 18.6436C93.6221 18.6115 93.5098 18.5955 93.3814 18.5955C93.0124 18.6757 92.5712 18.7479 92.0578 18.8121C91.5444 18.8763 91.023 18.9003 90.4936 18.8843C89.9641 18.8682 89.4588 18.796 88.9775 18.6677C88.4962 18.5554 88.1031 18.3468 87.7983 18.042C87.6699 17.9297 87.5817 17.8013 87.5336 17.6569C87.5015 17.4965 87.3972 17.3762 87.2207 17.296C87.2047 17.0874 87.1726 16.8548 87.1244 16.5981C87.0763 16.3414 87.0282 16.0767 86.98 15.8039C86.9319 15.5151 86.8918 15.2344 86.8597 14.9616C86.8437 14.6889 86.8597 14.4402 86.9079 14.2156C86.956 13.975 87.0522 13.7584 87.1966 13.5658C87.3571 13.3733 87.4132 13.1648 87.3651 12.9402C87.4453 12.9241 87.4934 12.884 87.5095 12.8198C87.5255 12.7396 87.5897 12.7075 87.702 12.7236C87.7983 12.4348 87.9026 12.162 88.0149 11.9053C88.1272 11.6486 88.2395 11.4 88.3518 11.1593C88.4801 10.9187 88.6004 10.678 88.7127 10.4374C88.8411 10.1807 88.9614 9.8999 89.0737 9.59507C88.8491 9.38651 88.6807 9.1619 88.5684 8.92125C88.4721 8.66455 88.3999 8.41588 88.3518 8.17522C88.3036 7.91853 88.2635 7.66183 88.2314 7.40513C88.1994 7.13239 88.1432 6.85965 88.063 6.58691C88.2234 6.34626 88.4159 6.15374 88.6406 6.00935C88.8812 5.84891 89.1379 5.72056 89.4106 5.6243C89.6834 5.52804 89.9802 5.44782 90.3011 5.38365C90.6219 5.31948 90.9588 5.24728 91.3118 5.16706C91.9535 4.9585 92.5231 4.79806 93.0204 4.68576C93.5338 4.57345 94.0312 4.48521 94.5125 4.42104C95.0098 4.34082 95.5232 4.26862 96.0527 4.20445C96.5821 4.14028 97.1837 4.04401 97.8576 3.91567C98.002 4.06006 98.1383 4.13225 98.2667 4.13225C98.3308 3.98786 98.403 3.94775 98.4833 4.01193C98.5795 4.06006 98.6196 4.01193 98.6036 3.86754C98.764 4.14028 98.9646 4.37291 99.2052 4.56543C99.4619 4.74191 99.7427 4.89432 100.048 5.02267Z" fill="#303030"/>
<path d="M113.163 6.99602C112.762 6.99602 112.329 7.02811 111.864 7.09228C111.398 7.14042 110.941 7.19657 110.492 7.26074C110.171 7.30887 109.858 7.34898 109.553 7.38107C109.265 7.41316 109 7.43722 108.759 7.45326C108.647 7.80622 108.535 8.11907 108.422 8.39181C108.31 8.66455 108.19 8.92927 108.061 9.18596C107.933 9.4587 107.813 9.73947 107.7 10.0282C107.604 10.301 107.508 10.5978 107.411 10.9187C107.251 11.1754 107.115 11.416 107.002 11.6406C106.906 11.8492 106.826 12.0898 106.762 12.3626C106.569 12.6032 106.425 12.8599 106.329 13.1327C106.232 13.3894 106.16 13.614 106.112 13.8065L106.016 14.0953C105.919 14.1915 105.863 14.2718 105.847 14.3359C105.831 14.3841 105.791 14.4322 105.727 14.4803C105.711 14.6568 105.655 14.8333 105.558 15.0098C105.526 15.09 105.502 15.1702 105.486 15.2504C105.47 15.3146 105.462 15.3627 105.462 15.3948C105.462 15.5552 105.422 15.6595 105.342 15.7077C105.358 15.7879 105.358 15.8761 105.342 15.9724C105.326 16.0526 105.31 16.1328 105.294 16.213C105.246 16.4056 105.23 16.558 105.246 16.6703C105.294 16.7344 105.334 16.7906 105.366 16.8387C105.414 16.8869 105.446 16.951 105.462 17.0312C105.558 17.0954 105.631 17.1355 105.679 17.1516C105.743 17.1997 105.839 17.2559 105.968 17.32L106.184 17.5607C106.264 18.0259 106.192 18.3949 105.968 18.6677C105.727 18.9725 105.318 19.1249 104.74 19.1249H104.451C104.371 19.0447 104.323 18.9805 104.307 18.9324C104.179 18.8843 104.074 18.8442 103.994 18.8121C103.914 18.78 103.842 18.7158 103.778 18.6196C103.569 18.5233 103.401 18.4431 103.272 18.3789L103.056 18.2586C103.056 18.0821 103.056 17.9858 103.056 17.9698C102.943 17.8254 102.855 17.665 102.791 17.4885C102.743 17.312 102.703 17.1355 102.671 16.9591C102.639 16.8147 102.598 16.6783 102.55 16.5499C102.518 16.4216 102.47 16.3093 102.406 16.213C102.374 15.2825 102.462 14.4964 102.671 13.8546C102.879 13.2129 103.096 12.5952 103.32 12.0016C103.449 11.6807 103.577 11.3599 103.705 11.039C103.834 10.7021 103.946 10.3571 104.042 10.0042L104.259 9.76353C104.371 9.50683 104.459 9.29827 104.524 9.13783C104.604 8.96136 104.684 8.78488 104.764 8.6084C104.812 8.49609 104.853 8.39181 104.885 8.29555C104.933 8.18324 104.973 8.08698 105.005 8.00677C104.909 8.00677 104.82 8.01479 104.74 8.03083C104.66 8.03083 104.58 8.03885 104.5 8.0549C104.403 8.07094 104.315 8.08698 104.235 8.10303C104.155 8.10303 104.074 8.10303 103.994 8.10303C103.882 8.10303 103.802 8.09501 103.754 8.07896C103.577 8.15918 103.385 8.19929 103.176 8.19929H102.935C102.887 8.19929 102.839 8.19929 102.791 8.19929C102.759 8.18324 102.727 8.17522 102.695 8.17522C102.534 8.17522 102.406 8.19929 102.31 8.24742C102.117 8.24742 101.933 8.24742 101.756 8.24742H101.515C101.483 8.24742 101.443 8.25544 101.395 8.27148C101.347 8.27148 101.307 8.27148 101.275 8.27148C101.163 8.27148 101.042 8.26346 100.914 8.24742C100.786 8.21533 100.649 8.15918 100.505 8.07896C100.312 7.82227 100.184 7.6859 100.12 7.66985L99.9031 7.38107C99.8871 7.28481 99.863 7.19657 99.8309 7.11635C99.7988 7.02009 99.7667 6.91581 99.7347 6.8035C99.6705 6.64307 99.6063 6.47461 99.5421 6.29813C99.494 6.10561 99.4699 5.881 99.4699 5.6243C99.486 5.49595 99.5181 5.39969 99.5662 5.33552C99.6143 5.27134 99.6544 5.21519 99.6865 5.16706L99.7587 4.80608L100.072 4.83015H100.745C101.259 4.83015 101.78 4.8141 102.31 4.78202C102.839 4.73389 103.385 4.68576 103.946 4.63763C104.267 4.60554 104.588 4.57345 104.909 4.54136C105.246 4.50928 105.591 4.47719 105.943 4.4451C106.008 4.30071 106.072 4.16434 106.136 4.03599L106.377 3.91567C106.665 3.89962 106.866 3.93973 106.978 4.03599C107.107 4.11621 107.211 4.19643 107.291 4.27665C107.644 4.24456 107.997 4.21247 108.35 4.18038C108.719 4.13225 109.088 4.0761 109.457 4.01193C110.003 3.93171 110.548 3.85951 111.093 3.79534C111.655 3.73117 112.192 3.69908 112.706 3.69908C112.93 3.69908 113.147 3.7071 113.356 3.72314C113.564 3.73919 113.757 3.76325 113.933 3.79534L114.174 3.9638C114.222 4.06006 114.286 4.1483 114.366 4.22852C114.463 4.30873 114.559 4.38895 114.655 4.46917C114.848 4.64565 115.04 4.85421 115.233 5.09487C115.425 5.33552 115.497 5.68848 115.449 6.15374C115.321 6.34626 115.225 6.45857 115.161 6.49065L114.944 6.77944L114.703 6.75537C114.607 6.75537 114.519 6.77141 114.439 6.8035C114.358 6.81954 114.278 6.84361 114.198 6.8757C114.134 6.90778 114.07 6.93987 114.005 6.97196C113.941 6.988 113.869 7.00405 113.789 7.02009C113.644 7.02009 113.524 7.02009 113.428 7.02009C113.348 7.00405 113.259 6.99602 113.163 6.99602Z" fill="#303030"/>
<path fill-rule="evenodd" clip-rule="evenodd" d="M21.8923 7.84454C23.2555 8.48023 24.9539 7.73382 25.6781 6.18066L25.7151 6.10128C26.4175 4.59603 26.8319 3.70802 25.4921 3.08324C25.1697 2.94007 24.8102 2.82359 24.4362 2.74221L24.42 2.72603L24.3842 2.73114C22.9434 2.43122 21.303 2.65419 20.7337 3.87503C20.0094 5.42819 20.5292 7.20891 21.8923 7.84454ZM21.5985 4.65045C22.0197 4.46638 22.6031 4.36261 23.3486 4.5117C23.99 4.63998 24.5114 4.62908 24.9128 4.55658C24.9413 4.92994 24.8717 5.33426 24.6915 5.7206C24.221 6.72967 23.1715 7.23991 22.3524 6.85793C21.6177 6.51538 21.3139 5.56977 21.5985 4.65045Z" fill="#FFC107"/>
<path fill-rule="evenodd" clip-rule="evenodd" d="M18.4879 7.28831C18.0086 7.77816 17.3921 8.02333 16.7519 7.9787C16.5441 7.96442 16.0829 7.73422 15.7875 7.58682C15.7113 7.54878 15.6461 7.51623 15.5992 7.49435C14.7035 7.07669 14.5219 6.33504 14.6015 5.17272C14.7031 3.71321 15.8319 2.59899 17.1179 2.68822C17.7198 2.72947 18.0415 3.16707 18.4169 3.67775L18.4174 3.67842C18.4407 3.71009 18.4642 3.74205 18.4879 3.7742C18.5257 3.82535 18.564 3.87632 18.6023 3.9273C18.9568 4.39903 19.3118 4.87149 19.2691 5.49449C19.2214 6.18515 18.9439 6.82212 18.4879 7.28831ZM17.043 3.77422C16.3553 3.72651 15.7474 4.38759 15.6874 5.24764C15.6287 6.10747 16.1405 6.84559 16.8275 6.89268C17.144 6.91472 17.4574 6.78476 17.7097 6.52691C17.985 6.24555 18.1531 5.85239 18.183 5.4197C18.2127 4.98721 18.1001 4.57452 17.866 4.25789C17.7359 4.08167 17.577 3.94928 17.4016 3.86749C17.288 3.81449 17.1672 3.78274 17.043 3.77422Z" fill="#FFC107"/>
<path fill-rule="evenodd" clip-rule="evenodd" d="M23.0205 8.91488C24.4238 9.56926 25.3847 10.8763 25.5911 12.411L26.0886 16.1089C26.1711 16.7227 26.0563 17.3335 25.7567 17.8755C25.4571 18.4174 25.0007 18.8395 24.4371 19.096C23.8732 19.3524 23.2552 19.4192 22.6498 19.2889C22.4366 19.243 22.2318 19.1742 22.0384 19.084C21.6827 18.9182 21.3647 18.6798 21.1002 18.3784C20.0747 17.2095 18.5989 16.5153 17.0457 16.4696L17.0052 16.4689C16.386 16.4551 15.8002 16.2469 15.3113 15.8668C14.8224 15.4866 14.4763 14.9703 14.3104 14.3736C14.1448 13.7768 14.1749 13.1561 14.3976 12.5784C14.6202 12.0007 15.0144 11.5202 15.5374 11.189L18.6901 9.19294C19.9983 8.36452 21.6173 8.26057 23.0205 8.91488ZM24.9352 15.7007C23.2233 15.0206 20.6949 14.5177 20.4885 16.4339C20.2393 16.2749 19.98 16.1326 19.7125 16.0079C18.8791 15.6193 17.9657 15.4011 17.0302 15.3804L17.0035 15.3799C16.227 15.3517 15.5681 14.8329 15.3593 14.0822C15.1654 13.3835 15.4089 12.6559 15.9681 12.216C16.3723 11.9304 17.0388 11.8074 18.3489 12.3689C20.3489 13.226 20.3727 12.0117 19.7775 11.2975C20.4917 11.2975 21.9915 11.0832 22.2775 10.226C22.3321 10.0622 22.3441 9.92183 22.3245 9.80197C22.4039 9.83212 22.4826 9.86533 22.5604 9.90162C23.6258 10.3984 24.3555 11.3908 24.5123 12.5561L24.9352 15.7007Z" fill="#FFC107"/>
<path fill-rule="evenodd" clip-rule="evenodd" d="M27.2606 10.966C27.0476 10.8667 26.849 10.7336 26.6718 10.5662C25.668 9.61726 25.7288 7.91684 26.8073 6.77572C27.3184 6.23468 27.9835 5.89513 28.6803 5.81936C29.1607 5.7672 29.2679 5.94172 29.4276 6.20153C29.5104 6.3362 29.6072 6.49379 29.7775 6.6546C29.9205 6.78989 30.1099 6.92223 30.3064 7.05949C30.7943 7.40041 31.3257 7.77169 31.2986 8.29396C31.2624 8.99387 30.9608 9.67727 30.4494 10.2181C29.5611 11.1578 28.2548 11.4296 27.2606 10.966ZM28.798 6.90167C28.3581 6.94951 27.9322 7.1702 27.5985 7.52346C26.9323 8.22835 26.7798 9.58413 27.3473 10.1208C27.9154 10.6576 28.8239 10.4686 29.4902 9.76366C29.8242 9.41052 30.1886 8.67933 30.2115 8.23758C30.2327 7.82878 30.0997 7.46691 29.8369 7.21838C29.574 6.96992 29.205 6.8574 28.798 6.90167Z" fill="#FFC107"/>
<path fill-rule="evenodd" clip-rule="evenodd" d="M31.0591 12.8354C30.2909 11.6547 28.9195 11.6717 27.6347 12.3689C26.3504 13.067 25.9712 14.1674 26.5858 15.3001C26.8099 15.7134 27.1579 16.0232 27.5719 16.2163C28.2934 16.5528 29.2159 16.5345 30.0334 16.0912C31.3177 15.3932 31.6737 13.9684 31.0591 12.8354ZM29.5142 15.1345C28.7557 15.5458 27.8714 15.3872 27.5427 14.781C27.3018 14.3371 27.4249 13.774 27.8058 13.3428C28.576 13.2117 29.5503 13.0912 30.186 13.1333C30.2255 13.1817 30.2608 13.234 30.2913 13.2902C30.6194 13.8959 30.2706 14.7232 29.5142 15.1345Z" fill="#FFC107"/>
</svg>
