<svg width="24" height="24" viewBox="0 0 24 24" fill="none" xmlns="http://www.w3.org/2000/svg">
<path d="M12 16C13.6569 16 15 14.6569 15 13C15 11.3431 13.6569 10 12 10C10.3431 10 9 11.3431 9 13C9 14.6569 10.3431 16 12 16Z" stroke="#54ADFF" stroke-width="1.5" stroke-linejoin="round"/>
<path d="M3 9C3 7.89543 3.89543 7 5 7H7.5C8.05228 7 8.5 6.55228 8.5 6C8.5 5.44772 8.94772 5 9.5 5H14.5C15.0523 5 15.5 5.44772 15.5 6C15.5 6.55228 15.9477 7 16.5 7H19C20.1046 7 21 7.89543 21 9V17C21 18.1046 20.1046 19 19 19H5C3.89543 19 3 18.1046 3 17V9Z" stroke="#54ADFF" stroke-width="1.5" stroke-linejoin="round"/>
</svg>
