<svg width="24" height="24" viewBox="0 0 24 24" fill="none" xmlns="http://www.w3.org/2000/svg">
<path d="M5 15.7059L4.46967 15.1756C4.32902 15.3162 4.25 15.507 4.25 15.7059H5ZM15.7059 5L16.2362 4.46967C15.9433 4.17678 15.4684 4.17678 15.1756 4.46967L15.7059 5ZM19 8.29412L19.5303 8.82445C19.8232 8.53155 19.8232 8.05668 19.5303 7.76379L19 8.29412ZM8.29412 19V19.75C8.49303 19.75 8.6838 19.671 8.82445 19.5303L8.29412 19ZM5 19H4.25C4.25 19.4142 4.58579 19.75 5 19.75V19ZM11.5882 18.25C11.174 18.25 10.8382 18.5858 10.8382 19C10.8382 19.4142 11.174 19.75 11.5882 19.75V18.25ZM18.5882 19.75C19.0024 19.75 19.3382 19.4142 19.3382 19C19.3382 18.5858 19.0024 18.25 18.5882 18.25V19.75ZM5.53033 16.2362L16.2362 5.53033L15.1756 4.46967L4.46967 15.1756L5.53033 16.2362ZM15.1756 5.53033L18.4697 8.82445L19.5303 7.76379L16.2362 4.46967L15.1756 5.53033ZM18.4697 7.76379L7.76379 18.4697L8.82445 19.5303L19.5303 8.82445L18.4697 7.76379ZM8.29412 18.25H5V19.75H8.29412V18.25ZM5.75 19V15.7059H4.25V19H5.75ZM12.705 8.00092L15.9991 11.295L17.0597 10.2344L13.7656 6.94026L12.705 8.00092ZM11.5882 19.75H18.5882V18.25H11.5882V19.75Z" fill="#54ADFF"/>
</svg>
