<svg xmlns="http://www.w3.org/2000/svg" width="24" height="24" fill="none"><g fill="#54ADFF" clip-path="url(#a)"><path d="M15.361 14.362a5.82 5.82 0 0 0-3.322-4.518 5.82 5.82 0 0 0-5.596.36l-4.074 2.579a3.675 3.675 0 0 0-1.473 1.795 3.674 3.674 0 0 0-.113 2.32 3.675 3.675 0 0 0 1.294 1.93c.631.491 1.388.76 2.189.778l.052.001a7.271 7.271 0 0 1 5.24 2.467 3.68 3.68 0 0 0 2.002 1.177 3.675 3.675 0 0 0 2.31-.25 3.675 3.675 0 0 0 1.705-1.577c.388-.7.536-1.49.43-2.283l-.644-4.779Zm-2.074 7.359c-.927.421-2 .19-2.672-.575a8.662 8.662 0 0 0-2.85-2.136 8.662 8.662 0 0 0-3.467-.81l-.035-.001a2.28 2.28 0 0 1-2.124-1.677 2.28 2.28 0 0 1 .982-2.55l4.075-2.58a4.418 4.418 0 0 1 4.249-.273 4.419 4.419 0 0 1 2.522 3.43l.643 4.78a2.28 2.28 0 0 1-1.323 2.392ZM4.721 9.395c.828.058 1.624-.259 2.244-.892.59-.602.948-1.426 1.01-2.318.06-.892-.182-1.757-.682-2.435-.527-.711-1.272-1.135-2.099-1.192-1.662-.115-3.12 1.325-3.252 3.211-.103 1.502.668 2.84 1.825 3.38.296.137.617.223.954.246Zm-1.375-3.53c.077-1.11.863-1.965 1.752-1.903.16.01.316.052.463.12.227.106.432.277.6.505.303.409.448.942.41 1.501-.039.56-.256 1.067-.612 1.431-.326.333-.731.501-1.14.473-.889-.061-1.55-1.015-1.473-2.126Zm7.295 2.782c1.762.821 3.957-.143 4.893-2.15.936-2.008.264-4.31-1.498-5.131-1.761-.822-3.956.143-4.892 2.15-.936 2.008-.264 4.31 1.497 5.13Zm2.801-6.006c1.059.493 1.425 1.956.817 3.261-.608 1.304-1.965 1.963-3.023 1.47-1.059-.494-1.425-1.957-.817-3.26.608-1.305 1.964-1.965 3.023-1.471Zm2.302 9.473c.229.216.485.388.76.517 1.285.599 2.974.248 4.122-.967.66-.699 1.05-1.582 1.097-2.486.05-.947-.278-1.804-.923-2.413-.644-.608-1.518-.888-2.46-.785-.901.098-1.76.536-2.421 1.236-1.394 1.474-1.472 3.672-.175 4.898Zm1.197-3.932c.432-.457.982-.742 1.55-.804.526-.057 1.003.089 1.343.41.34.32.512.789.484 1.317-.03.57-.283 1.136-.715 1.593-.86.91-2.159 1.088-2.893.394-.733-.694-.63-2 .231-2.91Zm5.729 6.645c-.797-1.465-2.795-1.923-4.456-1.022-1.66.902-2.363 2.827-1.569 4.29.29.535.74.935 1.274 1.185.933.435 2.125.411 3.181-.162 1.66-.902 2.364-2.827 1.57-4.291Zm-2.24 3.055c-.98.531-2.124.326-2.548-.457-.425-.783.026-1.852 1.004-2.384.65-.353 1.372-.38 1.909-.13.271.126.496.324.639.587.424.783-.027 1.852-1.005 2.384Z"/></g><defs><clipPath id="a"><path fill="#fff" d="M0 0h24v24H0z"/></clipPath></defs></svg>