<svg xmlns="http://www.w3.org/2000/svg" aria-hidden="true" style="position:absolute;width:0;height:0;overflow:hidden"><defs><symbol id="icon-arrow-left" viewBox="0 0 32 32"><path fill="none" stroke="#54adff" stroke-linecap="round" stroke-linejoin="round" stroke-width="2" d="M5.333 16h21.333M5.333 16l8-8m-8 8 8 8" style="stroke:var(--color1, #54adff)"/></symbol><symbol id="icon-camera" viewBox="0 0 32 32"><path fill="none" stroke="#54adff" stroke-linejoin="round" stroke-width="2" d="M16 21.333a4 4 0 0 0 0-8 4 4 0 0 0 0 8z" style="stroke:var(--color1, #54adff)"/><path fill="none" stroke="#54adff" stroke-linejoin="round" stroke-width="2" d="M4 12a2.667 2.667 0 0 1 2.667-2.667H10c.736 0 1.333-.597 1.333-1.333s.597-1.333 1.333-1.333h6.667c.736 0 1.333.597 1.333 1.333s.597 1.333 1.333 1.333h3.333A2.667 2.667 0 0 1 27.999 12v10.667a2.667 2.667 0 0 1-2.667 2.667H6.665a2.667 2.667 0 0 1-2.667-2.667V12z" style="stroke:var(--color1, #54adff)"/></symbol><symbol id="icon-check" viewBox="0 0 32 32"><path fill="none" stroke="#54adff" stroke-linecap="round" stroke-linejoin="round" stroke-width="2" d="M26.667 9.333 12 24l-6.667-6.667" style="stroke:var(--color1, #54adff)"/></symbol><symbol id="icon-check-round" viewBox="0 0 32 32"><path fill="none" stroke="#54adff" stroke-linecap="round" stroke-linejoin="round" stroke-width="2" d="m22.667 12-9.333 9.333-4-4m1.333 9.334h10.667a5.333 5.333 0 0 0 5.333-5.333v0-10.667a5.333 5.333 0 0 0-5.333-5.333v0H10.667a5.333 5.333 0 0 0-5.333 5.333v10.667a5.333 5.333 0 0 0 5.333 5.333v0z" style="stroke:var(--color1, #54adff)"/></symbol><symbol id="icon-chevron-down" viewBox="0 0 32 32"><path fill="none" stroke="#54adff" stroke-linecap="round" stroke-linejoin="round" stroke-width="2" d="M5.333 12 16 22.667 26.667 12" style="stroke:var(--color1, #54adff)"/></symbol><symbol id="icon-chevron-up" viewBox="0 0 32 32"><path fill="none" stroke="#54adff" stroke-linecap="round" stroke-linejoin="round" stroke-width="2" d="M26.667 20 16 9.333 5.333 20" style="stroke:var(--color1, #54adff)"/></symbol><symbol id="icon-clock" viewBox="0 0 32 32"><path fill="none" stroke="#54adff" stroke-linecap="round" stroke-linejoin="round" stroke-width="1.92" d="M16.33 9.6V16l3.84 3.84M27.85 16c0 6.362-5.158 11.52-11.52 11.52S4.81 22.362 4.81 16v0c0-6.362 5.158-11.52 11.52-11.52S27.85 9.638 27.85 16v0z" style="stroke:var(--color1, #54adff)"/></symbol><symbol id="icon-cross-small" viewBox="0 0 32 32"><path fill="none" stroke="#54adff" stroke-linecap="round" stroke-linejoin="round" stroke-width="2" d="M25.333 6.667 6.666 25.334m.001-18.667 18.667 18.667" style="stroke:var(--color1, #54adff)"/></symbol><symbol id="icon-cross-small-1" viewBox="0 0 32 32"><path fill="none" stroke="#54adff" stroke-linecap="round" stroke-linejoin="round" stroke-width="2" d="M21.333 10.667 10.666 21.334m.001-10.667 10.667 10.667" style="stroke:var(--color1, #54adff)"/></symbol><symbol id="icon-edit-2" viewBox="0 0 32 32"><path fill="#54adff" d="m6.667 20.941-.707-.707a.997.997 0 0 0-.293.707h1zM20.941 6.667l.707-.707a1 1 0 0 0-1.414 0l.707.707zm4.392 4.392.707.707a1 1 0 0 0 0-1.414l-.707.707zM11.059 25.333v1a.997.997 0 0 0 .707-.293l-.707-.707zm-4.392 0h-1a1 1 0 0 0 1 1v-1zm8.784-1a1 1 0 0 0 0 2v-2zm9.333 2a1 1 0 0 0 0-2v2zM7.373 21.648 21.648 7.373 20.235 5.96 5.96 20.235l1.413 1.413zM20.235 7.373l4.392 4.392 1.413-1.413-4.392-4.392-1.413 1.413zm4.392 2.979L10.352 24.627l1.413 1.413L26.04 11.765l-1.413-1.413zM11.059 24.333H6.667v2h4.392v-2zm-3.392 1v-4.392h-2v4.392h2zm9.273-14.666 4.392 4.393 1.413-1.413-4.391-4.393-1.415 1.413zm-1.489 15.666h9.333v-2h-9.333v2z" style="fill:var(--color1, #54adff)"/></symbol><symbol id="icon-eye-closed" viewBox="0 0 32 32"><path fill="none" stroke="#54adff" stroke-linecap="round" stroke-linejoin="round" stroke-width="2" d="M13.019 7.06c.894-.25 1.921-.393 2.981-.393h.001C24.486 6.667 29.334 16 29.334 16s-1.105 2.128-3.184 4.352M5.799 11.703C3.754 13.908 2.667 16 2.667 16S7.515 25.333 16 25.333c1.079 0 2.123-.149 3.113-.427l-.081.019m-3.699-4.978a4.02 4.02 0 0 1-3.098-2.585l-.009-.028m4.441-5.279a4.012 4.012 0 0 1 3.275 3.255l.003.024M4 4l24 24" style="stroke:var(--color1, #54adff)"/></symbol><symbol id="icon-eye-open" viewBox="0 0 32 32"><path fill="none" stroke="#54adff" stroke-linecap="round" stroke-linejoin="round" stroke-width="2" d="M2.667 16S7.515 6.667 16 6.667 29.333 16 29.333 16 24.485 25.333 16 25.333 2.667 16 2.667 16z" style="stroke:var(--color1, #54adff)"/><path fill="none" stroke="#54adff" stroke-linecap="round" stroke-linejoin="round" stroke-width="2" d="M16 20a4 4 0 0 0 0-8v0a4 4 0 0 0 0 8v0z" style="stroke:var(--color1, #54adff)"/></symbol><symbol id="icon-female" viewBox="0 0 32 32"><path fill="none" stroke="#54adff" stroke-linecap="round" stroke-linejoin="round" stroke-width="1.92" d="M16.33 17.28c3.535 0 6.4-2.865 6.4-6.4s-2.865-6.4-6.4-6.4v0c-3.535 0-6.4 2.865-6.4 6.4s2.865 6.4 6.4 6.4v0zm0 0v10.24m-3.84-3.84h7.68" style="stroke:var(--color1, #54adff)"/></symbol><symbol id="icon-filters-2" viewBox="0 0 32 32"><path fill="none" stroke="#54adff" stroke-linecap="round" stroke-width="2" d="M18.667 6.667a2.667 2.667 0 1 0-5.334 0v0m5.334 0a2.667 2.667 0 1 1-5.334 0v0m5.334 0h8m-13.334 0h-8m16 9.333a2.667 2.667 0 1 0 5.334 0v0a2.667 2.667 0 1 0-5.334 0v0zm0 0h-16m5.334 9.333a2.667 2.667 0 1 0-5.334 0v0a2.667 2.667 0 1 0 5.334 0v0zm0 0h16" style="stroke:var(--color1, #54adff)"/></symbol><symbol id="icon-filters-3" viewBox="0 0 32 32"><path fill="none" stroke="#54adff" stroke-linecap="round" stroke-linejoin="round" stroke-width="1.92" d="M6.09 5.76 12.49 16v7.68l7.68 3.84V16l6.4-10.24H6.09z" style="stroke:var(--color1, #54adff)"/></symbol><symbol id="icon-heart" viewBox="0 0 32 32"><path fill="none" stroke="#54adff" stroke-linecap="round" stroke-linejoin="round" stroke-width="2" d="M5.775 16.063 16 26.667l10.225-10.604A6.38 6.38 0 0 0 28 11.637v-.019.001c0-3.471-2.713-6.285-6.061-6.285a5.934 5.934 0 0 0-4.283 1.838l-.002.002-1.653 1.717-1.653-1.717a5.938 5.938 0 0 0-4.284-1.84h-.001c-3.347 0-6.061 2.813-6.061 6.285 0 1.667.639 3.267 1.775 4.444z" style="stroke:var(--color1, #54adff)"/></symbol><symbol id="icon-location-1" viewBox="0 0 32 32"><path fill="none" stroke="#54adff" stroke-linecap="round" stroke-linejoin="round" stroke-width="1.92" d="M26.57 14.72c0 5.655-4.585 10.24-10.24 12.8-5.655-2.56-10.24-7.145-10.24-12.8S10.675 4.48 16.33 4.48s10.24 4.585 10.24 10.24v0z" style="stroke:var(--color1, #54adff)"/><path fill="none" stroke="#54adff" stroke-linecap="round" stroke-linejoin="round" stroke-width="1.92" d="M20.17 14.72a3.84 3.84 0 1 1-7.68 0v0a3.84 3.84 0 1 1 7.68 0v0z" style="stroke:var(--color1, #54adff)"/></symbol><symbol id="icon-logo" viewBox="0 0 185 32"><path fill="#303030" d="M3.822 29.358C1.726 29.072.453 27.964 0 26.035l.035-.392.321-.965c.12-.405.251-.798.393-1.179a2.67 2.67 0 0 1 .714-1.071 11.9 11.9 0 0 1 .393-.965c.215-.453.56-1.119 1.035-2 .382-.69.679-1.238.893-1.642.239-.405.43-.714.571-.929a5.223 5.223 0 0 0-.999-1.25 26.44 26.44 0 0 1-.92-1.836l-.081-.198c-.194-.46-.4-1.054-.575-1.661l-.031-.125a7.779 7.779 0 0 0-.286-1.75l-.216-.928a4.141 4.141 0 0 1-.106-.947v-.018.001a2.68 2.68 0 0 1-.246-.623l-.004-.019.072-.429c.119-.191.143-.441.071-.751a7.568 7.568 0 0 0-.227-1.053l.013.053a64.738 64.738 0 0 1-.215-.963 4.928 4.928 0 0 1-.034-1.052l-.001.016c.023-.334.107-.655.25-.965.167-.31.44-.571.822-.786l.357-.249.358.214c.262.167.511.309.75.429l.714.358c.286.142.571.297.857.464.286.143.594.309.928.499l.358.25-.037.393a.59.59 0 0 0 .143.357l-.001-.001.393.107.037.501v.429c0 .214.011.368.034.464a.955.955 0 0 0 .144.249l.178.466c0 .429.035.809.107 1.143.071.333.154.666.249 1 .12.333.215.678.286 1.035.072.334.083.703.037 1.107.143-.072.286-.178.429-.321l.143-.144.214-.142 2.501-3.394-.072-.427.893-.857c.239-.191.465-.382.679-.571.215-.215.393-.453.536-.714l.215-.321c1.071-1.429 2.451-2.31 4.142-2.643l.609-.144.178.571c.119.334.345.631.679.893.357.239.738.477 1.143.714l.392.25c.143.286.215.501.215.643 0 .142-.011.262-.035.357l.178.464c-.263.69-.549 1.191-.857 1.501-.309.286-.631.56-.965.821a10.02 10.02 0 0 0-.714.643 2.439 2.439 0 0 0-.493.699l-.006.015-.286.358c-.595.309-.976.761-1.143 1.357l-.143.501h-.537c-.023 0-.083.059-.178.178-.096.095-.239.345-.429.75a6.122 6.122 0 0 1-.464.571l-.179.178a4.08 4.08 0 0 1-.154.345l.011-.024a4.388 4.388 0 0 1-.107.358l-.214.286a1.984 1.984 0 0 0-.459.561l-.005.01c-.096.167-.202.369-.321.607-.096.215-.203.441-.322.679a2.955 2.955 0 0 1-.499.643l.071.392-.286.25a2.32 2.32 0 0 0-.493.631l-.006.012c-.143.238-.286.488-.429.75-.143.286-.297.571-.464.857s-.382.547-.643.785c-.145.39-.301.719-.482 1.033l.018-.033c-.119.239-.334.525-.643.857-.286 1.143-.963 2.369-2.035 3.679a2.002 2.002 0 0 1-.25.786 6.104 6.104 0 0 1-.406.7l.014-.023c-.068.135-.128.24-.191.343l.012-.021-.106.214-.107.393a2.762 2.762 0 0 1-.465.642 8.198 8.198 0 0 1-.429.465c-.08.055-.15.113-.214.178a1.22 1.22 0 0 1-.143.179l-.607.215zM76.066 7.857c.047.523.13.976.249 1.358.119.381.25.75.393 1.106.119.334.226.667.321 1 .119.31.202.69.25 1.143a13.583 13.583 0 0 0-.413 1.62l-.015.094a54.754 54.754 0 0 1-.25 1.643c-.381.833-.75 1.571-1.106 2.214-.248.425-.534.976-.798 1.539l-.059.14a2.03 2.03 0 0 0-.322.429 9.415 9.415 0 0 1-.249.464 3.05 3.05 0 0 0-.171.304l-.008.019a1.23 1.23 0 0 1-.18.288l.001-.002-.714-.251-.143.894-.501.143-.357.429c-.43.758-.903 1.413-1.438 2.011l.01-.011c-.508.528-1.07.999-1.678 1.405l-.037.023c-.619.405-1.334.786-2.143 1.143-.786.358-1.679.75-2.679 1.178a8.894 8.894 0 0 0-1.067-.071h-.004l-.822-.072c-.453 0-1.011-.035-1.679-.106-.071-.191-.178-.322-.321-.393a.873.873 0 0 0-.392-.107h-.002a2.106 2.106 0 0 1-.923-.813l-.005-.009a18.286 18.286 0 0 1-.496-1.027l-.076-.187a9.664 9.664 0 0 0-.383-.764l.026.05c-.15-.299-.28-.533-.419-.761l.026.046.608-.179-.786-.857a.645.645 0 0 0-.176-.177l-.002-.001a1.395 1.395 0 0 1-.175-.209l-.003-.005-.037-.571a100.36 100.36 0 0 1-.106-4.489v-.012c.023-1.381.214-2.607.571-3.679v-.392c.071-.525.143-.953.214-1.286.072-.358.131-.69.178-1a8.796 8.796 0 0 1 .322-1.464c.333-.072.583-.203.75-.393.167-.215.309-.405.429-.571.334-.024.56.023.679.143.119.119.238.309.357.571.119.214.263.453.429.714.191.262.464.464.822.607.048.191.107.393.178.607.096.191.191.405.286.643.169.349.339.774.48 1.213l.02.073c.167.429.262.846.286 1.25a6.516 6.516 0 0 0-.562 1.525l-.009.046a15.33 15.33 0 0 0-.25 1.822c-.023.595-.011 1.178.035 1.75.072.549.178 1.013.321 1.394l.215.463.607-.071c.801-.21 1.444-.417 2.072-.654l-.143.047a10.617 10.617 0 0 0 1.642-.822c.501-.309.976-.666 1.429-1.072.453-.429.929-.917 1.429-1.463a8.604 8.604 0 0 0 1.286-1.858c.382-.714.69-1.451.929-2.214.262-.762.453-1.512.571-2.25.143-.762.238-1.477.286-2.143.405-.143.607-.429.607-.857l-.072-.393c-.095-.143-.095-.309 0-.499.144-.453.477-.798 1.001-1.037.381.239.713.501.999.786.31.286.595.571.857.857zM83.6 24.464c-.263.953-.501 1.679-.714 2.179-.191.475-.488.976-.893 1.499-.31-.048-.525-.011-.643.107a2.517 2.517 0 0 1-.383.315l-.009.006c-.215.048-.369.048-.465 0s-.178-.108-.249-.178a4.98 4.98 0 0 0-.253-.161l-.033-.018c-.096-.047-.251-.071-.465-.071a3.554 3.554 0 0 0-.187-.559l.009.023c-.048-.167-.202-.226-.464-.178a1.077 1.077 0 0 0 .035-.47l.001.006a1.244 1.244 0 0 0-.111-.365l.003.008a5.783 5.783 0 0 0-.08-.37l.01.049a.92.92 0 0 1 .037-.435l-.002.006c-.119 0-.215-.083-.286-.25a4.986 4.986 0 0 0-.263-.523l.013.023c.072-.429.143-.834.215-1.215.071-.381.154-.738.25-1.071.119-.334.214-.667.286-1a1.746 1.746 0 0 0-.112-1.048l.004.011c.095.072.167.061.214-.034a1.77 1.77 0 0 0 .106-.42l.001-.009a4.48 4.48 0 0 0 .035-.535c0-.191-.011-.346-.035-.465.238-.618.429-1.249.571-1.893.167-.666.309-1.321.429-1.965.143-.642.286-1.273.429-1.893.15-.656.346-1.228.595-1.771l-.023.056c.263-.048.549-.011.857.107.334.095.536.226.607.393a8.108 8.108 0 0 0 1.627-1.69l.017-.024c.475-.691.965-1.358 1.464-2a11.381 11.381 0 0 1 1.627-1.701l.016-.013c.618-.501 1.392-.798 2.32-.894.477.358 1.001.727 1.573 1.107a4.442 4.442 0 0 1 1.464 1.429c.191.095.345.202.464.321.143.096.31.202.501.322v.427c.286.263.512.571.679.929.19.334.357.703.499 1.107.143.381.286.774.429 1.178.143.381.309.75.501 1.107a.863.863 0 0 0-.072.32v.001c0 .072.011.154.035.25.048.095.083.19.107.286.023.095.023.226 0 .393-.072 1.047-.417 1.893-1.035 2.535a7.525 7.525 0 0 1-2.135 1.587l-.044.02a17.68 17.68 0 0 1-2.618 1.003l-.133.034c-.976.286-1.857.594-2.642.928 0 .096.035.143.107.143.095 0 .13.059.106.179.571.357 1.024.642 1.358.857.333.214.642.392.928.535.31.143.631.274.965.393.358.095.846.215 1.464.358.619.143 1.096.262 1.429.357.358.072.679.143.965.215l.857.143c.309.023.738.059 1.286.106.215.215.393.477.536.786.167.286.274.583.321.893.048.286.059.571.035.857a1.113 1.113 0 0 1-.251.645l.002-.002c.023.071.071.106.143.106a.583.583 0 0 1 .29.001l-.004-.001a1.285 1.285 0 0 0-.358.358l-.286.429a1.546 1.546 0 0 1-.321.357.81.81 0 0 1-.498.215h-.002c-.738.286-1.666.297-2.785.035-1.12-.238-2.536-.69-4.25-1.358a47.346 47.346 0 0 1-2.494-1.008l.387.151a23.267 23.267 0 0 1-1.392-.75 12.605 12.605 0 0 1-1.072-.821c-.3-.278-.672-.616-1.046-.952l-.096-.085zm5.107-12.249c-.263.381-.56.726-.893 1.035-.31.309-.619.631-.929.965a6.122 6.122 0 0 0-.786 1.071c-.239.39-.414.847-.496 1.335l-.003.023a10.278 10.278 0 0 0 2.675-.704l-.068.025c.905-.382 1.762-.738 2.571-1.072-.095-.738-.357-1.333-.785-1.785-.405-.453-.834-.75-1.286-.893zm26.168 6.641c.026-.103.077-.141.154-.115a.85.85 0 0 0 .27-.039 1.402 1.402 0 0 1-.384-.801l-.001-.007a1.648 1.648 0 0 0-.387-.888l.002.002c.051-.128.09-.257.115-.385.051-.128.167-.179.346-.154a4.608 4.608 0 0 1 .044-1.608l-.005.03c.103-.488.256-.95.462-1.386.231-.437.488-.861.77-1.271.309-.437.603-.873.886-1.309.231-.051.373-.026.424.077.05.077.141.051.269-.077.411-.282.694-.591.848-.925.153-.359.231-.744.231-1.154.231-.669.487-1.322.77-1.965a12.58 12.58 0 0 1 1.067-1.891l-.028.043a8.75 8.75 0 0 1 1.232-1.463 4.818 4.818 0 0 1 1.396-.989l.029-.012a6.042 6.042 0 0 1 1.347-.848 8.073 8.073 0 0 1 1.716-.567l.055-.01a8.158 8.158 0 0 1 1.953-.231h.011-.001a6.13 6.13 0 0 1 1.89.202l-.043-.01c.129.051.206.026.232-.077.025-.128.089-.193.192-.193 1.283.154 2.426.411 3.427.77 1.026.36 1.899.861 2.618 1.502a24.14 24.14 0 0 1 1.319 2.353l.066.15c.437.873.77 1.797 1.001 2.773a10.092 10.092 0 0 1 .347 2.98v-.015a8.85 8.85 0 0 1-.677 3.139l.022-.059a10.603 10.603 0 0 1-3.218 2.707l-.055.028a23.989 23.989 0 0 1-3.981 1.645l-.178.048c-1.463.437-2.99.795-4.582 1.078-1.566.282-3.093.591-4.582.925.025.693.025 1.438 0 2.233a15.117 15.117 0 0 1-.286 2.445l.016-.096c-.146.861-.36 1.624-.644 2.353l.028-.081a8.008 8.008 0 0 1-1.094 2.103l.016-.023a5.957 5.957 0 0 0-1.658.162l.041-.008c-.539.128-1.027.257-1.464.385l-.616-.385a1.67 1.67 0 0 0-.688-.192h-.005c.077-.309 0-.629-.231-.963a12.797 12.797 0 0 0-.655-.962 3.409 3.409 0 0 1-.418-.938l-.006-.024c-.051-.334.103-.629.463-.886-.206-.179-.309-.462-.309-.847a.52.52 0 0 0 .385.153c-.051-.462 0-1.014.154-1.655.179-.642.32-1.271.423-1.887.129-.642.154-1.219.078-1.733-.078-.539-.385-.925-.925-1.155zm10.012-9.01c-.103.282-.193.539-.27.77a3.718 3.718 0 0 1-.192.577 5.117 5.117 0 0 1-.284.565l.014-.026c-.078.179-.167.385-.27.617a.591.591 0 0 0 .304.344l.004.002a.583.583 0 0 1 .307.343l.001.004a4.433 4.433 0 0 1 1.078-.385c.36-.103.719-.179 1.079-.231.359-.051.719-.115 1.078-.193a5.319 5.319 0 0 0 1.117-.385 6.346 6.346 0 0 1 1.149-.413l.046-.01a43.39 43.39 0 0 0 1.839-.543l-.569.157c.411-.129.809-.27 1.194-.423a3.496 3.496 0 0 0 1.001-.694c-.36-.334-.898-.629-1.617-.886a8.252 8.252 0 0 0-2.327-.462l-.022-.001a8.366 8.366 0 0 0-2.558.164l.055-.01a4.595 4.595 0 0 0-2.16 1.119l.003-.003zm34.962-1.809c.025.179.025.32 0 .423a.763.763 0 0 1-.04.236l.002-.005v.27c0 .078.025.206.077.385-.538.873-1.168 1.477-1.887 1.81a9.804 9.804 0 0 1-2.208.683l-.063.01c-.822.128-1.669.27-2.542.423-.847.155-1.694.489-2.542 1.002-.334-.129-.641-.129-.923 0-.257.128-.642.167-1.155.114a1.46 1.46 0 0 1-.567.345l-.01.003a6.655 6.655 0 0 0-.743.207l.049-.015c.103.232.142.475.115.731 0 .232.039.424.115.578a16.716 16.716 0 0 0 3.038-.045l-.072.006a46.753 46.753 0 0 1 3.234-.192c.025.128.013.217-.039.27-.051.025-.064.089-.039.192.181.128.36.295.539.501l.539.539c.179.179.359.334.538.462.206.103.437.142.694.115.103.206.167.437.192.694a1.219 1.219 0 0 1-.079.739l.003-.008c-.41.282-.822.577-1.232.886-.411.282-.847.538-1.31.77a7.654 7.654 0 0 1-1.368.563l-.056.015a5.446 5.446 0 0 1-1.671.153l.015.001h-.309c-.05 0-.128-.039-.231-.115-.205.128-.501.167-.886.114-.359-.05-.641-.011-.847.117-.282-.129-.629-.179-1.039-.154-.385 0-.733-.051-1.04-.154a13.088 13.088 0 0 0-1.082 1.664l-.035.069c-.334.617-.63 1.271-.886 1.965.873.128 1.591.179 2.157.153.59-.025 1.142-.064 1.655-.114a29.24 29.24 0 0 1 1.579-.194c.538-.077 1.219-.102 2.04-.077.514-.282 1.117-.462 1.81-.538a10.47 10.47 0 0 0 2.037-.484l-.074.022c.206.077.385.217.539.423.154.179.295.359.423.539.154.154.309.295.463.423a.728.728 0 0 0 .581.153l-.004.001c.1.101.17.234.192.381v.004c.051.128.09.257.117.385.025.128.064.243.115.346.077.078.192.103.346.078-.385.846-.834 1.502-1.347 1.963a5.099 5.099 0 0 1-1.659.99l-.036.011c-.641.231-1.36.411-2.155.538-.77.129-1.631.282-2.581.463-.231.051-.423.039-.577-.039a1.669 1.669 0 0 0-.507-.077h-.034.002c-.59.128-1.296.243-2.118.346s-1.656.141-2.503.115a10.675 10.675 0 0 1-2.5-.363l.074.017c-.77-.181-1.399-.514-1.887-1.001a1.41 1.41 0 0 1-.421-.607l-.003-.01c-.051-.256-.218-.448-.501-.577-.035-.425-.09-.807-.165-1.182l.011.065c-.077-.411-.153-.834-.231-1.27a21.293 21.293 0 0 1-.178-1.209l-.014-.14a4.43 4.43 0 0 1 .077-1.193c.078-.385.231-.731.462-1.04.257-.309.347-.641.27-1.001.129-.025.206-.089.231-.192.026-.129.129-.179.309-.154.154-.462.321-.898.501-1.309.179-.411.359-.809.539-1.194.205-.385.398-.77.577-1.154.206-.411.398-.861.577-1.349a3.507 3.507 0 0 1-.799-1.057l-.009-.021a7.251 7.251 0 0 1-.338-1.145l-.009-.05a19.437 19.437 0 0 1-.193-1.232 7.829 7.829 0 0 0-.284-1.364l.015.056c.257-.385.565-.694.925-.925.355-.24.762-.448 1.193-.604l.039-.012c.39-.142.868-.275 1.359-.374l.067-.011a61.745 61.745 0 0 0 1.617-.346c.677-.24 1.591-.504 2.522-.727l.212-.043c.822-.179 1.617-.32 2.387-.423.467-.088 1.308-.21 2.154-.316l.31-.032a43.665 43.665 0 0 0 2.888-.462c.231.231.449.346.655.346.102-.231.217-.295.346-.192.153.077.218 0 .192-.231.257.435.578.808.962 1.117.411.282.861.526 1.349.731z" style="fill:var(--color2, #303030)"/><path fill="#303030" d="M180.833 11.193c-.641 0-1.334.051-2.079.154-.744.078-1.475.167-2.194.27-.513.077-1.014.142-1.502.193-.463.05-.886.089-1.271.114a19.05 19.05 0 0 1-1.165 2.879l.049-.107c-.206.437-.398.886-.577 1.349a30.95 30.95 0 0 0-.463 1.424c-.256.411-.474.795-.655 1.154a5.753 5.753 0 0 0-.376 1.116l-.008.041a4.202 4.202 0 0 0-.694 1.232c-.154.411-.27.77-.346 1.078l-.154.462c-.154.154-.243.282-.27.385a.51.51 0 0 1-.19.231l-.002.001a2.19 2.19 0 0 1-.275.856l.006-.011a2.005 2.005 0 0 0-.113.372l-.002.014c-.02.068-.034.147-.039.228v.003c0 .256-.064.423-.192.501a1.2 1.2 0 0 1 0 .423l-.078.385c-.077.309-.102.552-.077.731.077.103.142.193.192.27a.581.581 0 0 1 .154.305v.003c.154.103.27.167.346.192.103.078.257.167.463.27l.346.385c.128.744.013 1.335-.346 1.771-.385.487-1.04.731-1.963.731h-.463c-.128-.128-.205-.231-.231-.309a26.054 26.054 0 0 1-.501-.192.78.78 0 0 1-.344-.305l-.002-.003a22.511 22.511 0 0 1-.987-.466l.177.081-.346-.192v-.462a2.805 2.805 0 0 1-.418-.751l-.006-.02a8.523 8.523 0 0 1-.182-.783l-.01-.064a4.904 4.904 0 0 0-.203-.689l.011.034a1.725 1.725 0 0 0-.236-.546l.004.006c-.05-1.489.09-2.746.424-3.774a55.57 55.57 0 0 1 1.192-3.411l-.152.447.616-1.539c.205-.539.385-1.091.538-1.657l.347-.384c.179-.411.32-.744.423-1.001l.385-.847a5.79 5.79 0 0 0 .193-.501c.077-.181.141-.334.192-.463h-.016c-.144 0-.285.014-.421.041l.014-.002c-.129 0-.257.013-.385.039-.154.025-.296.051-.424.077h-.385c-.179 0-.307-.013-.385-.039a2.167 2.167 0 0 1-.902.193h-.639a.334.334 0 0 0-.153-.039c-.257 0-.463.039-.616.115h-1.271a.646.646 0 0 0-.198.04l.004-.001h-.192c-.179 0-.373-.013-.577-.039a2.672 2.672 0 0 1-.668-.277l.013.007c-.309-.41-.513-.629-.616-.654l-.346-.462a2.05 2.05 0 0 0-.122-.438l.005.014a5.981 5.981 0 0 1-.128-.4l-.025-.101a26.937 26.937 0 0 1-.309-.809 4.369 4.369 0 0 1-.116-1.014v-.067.003c.026-.206.077-.359.154-.462.077-.103.141-.193.192-.27l.115-.577.501.038h1.079c.821 0 1.655-.025 2.503-.077.847-.078 1.72-.154 2.618-.231l1.539-.154c.539-.051 1.091-.103 1.656-.154.103-.231.206-.449.309-.655l.385-.192c.462-.026.783.039.962.192.205.129.371.257.501.385l1.694-.153c.825-.106 1.428-.2 2.027-.308l-.256.038a45.5 45.5 0 0 1 2.179-.304l.439-.043a22.662 22.662 0 0 1 2.579-.153c.36 0 .706.011 1.04.038s.642.065.925.115l.385.27c.077.154.179.296.307.423l.462.386c.309.282.616.616.925 1.001.307.385.424.949.346 1.694-.206.309-.359.488-.462.539l-.346.462-.385-.038h-.015c-.147 0-.288.028-.417.079l.008-.003c-.148.03-.277.07-.4.121l.015-.005-.307.154a9.019 9.019 0 0 1-.347.077h-.577a2.085 2.085 0 0 0-.408-.039h-.016.001z" style="fill:var(--color2, #303030)"/><path fill="#ffc107" d="M34.8 12.551c2.181 1.017 4.898-.177 6.057-2.662l.059-.127c1.123-2.409 1.786-3.829-.358-4.829a8.342 8.342 0 0 0-1.631-.535l-.059-.011-.026-.026-.057.009c-2.305-.48-4.93-.123-5.84 1.83-1.159 2.486-.328 5.334 1.854 6.351zm-.471-5.11c.674-.295 1.608-.461 2.8-.223 1.026.206 1.861.189 2.503.072a3.732 3.732 0 0 1-.364 1.885l.01-.022c-.752 1.615-2.432 2.431-3.742 1.819-1.176-.549-1.662-2.061-1.207-3.531zm-4.977 4.221c-.766.783-1.753 1.176-2.777 1.104-.331-.023-1.071-.391-1.543-.626a2.88 2.88 0 0 0-.215-.11l-.087-.038c-1.433-.669-1.723-1.855-1.597-3.714.163-2.335 1.969-4.118 4.026-3.975.963.065 1.478.766 2.079 1.583l.114.154c.059.082.121.163.183.245.567.754 1.135 1.511 1.066 2.507-.077 1.105-.52 2.125-1.25 2.871zm-2.311-5.623c-1.101-.077-2.073.982-2.169 2.358-.094 1.375.725 2.557 1.824 2.632.506.034 1.008-.173 1.411-.585.441-.45.709-1.08.758-1.771.047-.693-.133-1.353-.507-1.859a1.975 1.975 0 0 0-.731-.619l-.012-.005a1.582 1.582 0 0 0-.568-.149h-.005zm9.564 8.224.043.019a7.179 7.179 0 0 0-3.103-.7 7.13 7.13 0 0 0-3.87 1.128l-5.062 3.205a4.589 4.589 0 0 0-1.806 2.212l.011-.031a4.531 4.531 0 0 0-.319 1.676c0 .437.062.859.169 1.227l.008.032c.267.943.83 1.762 1.593 2.357l-.01-.007c.751.591 1.692.95 2.721.971l.064.002h.014a8.988 8.988 0 0 1 6.473 3.053l.004.005a4.566 4.566 0 0 0 2.476 1.452l-.03-.006a4.554 4.554 0 0 0 2.89-.303l.028-.012a4.587 4.587 0 0 0 2.084-1.941l-.012.023a4.527 4.527 0 0 0 .542-2.85l-.795-5.917-.004-.037c-.334-2.455-1.905-4.518-4.108-5.557zm3.064 10.858c-2.739-1.088-6.785-1.893-7.115 1.173a10.658 10.658 0 0 0-5.519-1.684h-.013l-.043-.001a2.825 2.825 0 0 1-2.626-2.057l-.005-.02a2.816 2.816 0 0 1 .969-2.982l.006-.005c.647-.457 1.713-.654 3.809.246 3.2 1.371 3.238-.571 2.286-1.714 1.143 0 3.543-.343 4-1.714a1.43 1.43 0 0 0 .075-.679c1.868.716 3.225 2.375 3.497 4.379l.003.028.677 5.031zm3.72-7.576a3.553 3.553 0 0 1-.943-.642l.002.002c-1.606-1.518-1.509-4.238.217-6.064.817-.865 1.881-1.409 2.997-1.53.768-.083.939.195 1.195.611.133.216.288.469.56.725.229.217.531.429.846.648.781.546 1.631 1.139 1.589 1.976-.058 1.12-.542 2.213-1.36 3.078-1.421 1.504-3.511 1.939-5.102 1.197zm2.46-6.503c-.704.077-1.385.43-1.92.994-1.065 1.129-1.31 3.298-.401 4.157s2.362.557 3.429-.571c.534-.565 1.117-1.735 1.154-2.441.034-.655-.179-1.234-.6-1.631-.421-.398-1.011-.578-1.662-.507zm3.617 9.495c-1.229-1.889-3.423-1.863-5.479-.746-2.055 1.117-2.662 2.877-1.678 4.689a3.397 3.397 0 0 0 1.577 1.466c1.154.537 2.631.509 3.938-.2 2.055-1.117 2.625-3.397 1.641-5.209zm-2.472 3.678c-1.214.658-2.629.405-3.154-.566-.385-.71-.189-1.611.422-2.301 1.232-.209 2.791-.402 3.808-.335.063.077.12.16.168.251.526.968-.033 2.293-1.243 2.95z" style="fill:var(--color3, #ffc107)"/></symbol><symbol id="icon-logout" viewBox="0 0 32 32"><path fill="none" stroke="#54adff" stroke-linecap="round" stroke-linejoin="round" stroke-width="2" d="M18.667 5.333H24A2.667 2.667 0 0 1 26.667 8v16A2.667 2.667 0 0 1 24 26.667v0h-5.333M4 16h16M4 16l5.333-5.333M4 16l5.333 5.333" style="stroke:var(--color1, #54adff)"/></symbol><symbol id="icon-male" viewBox="0 0 32 32"><path fill="none" stroke="#54adff" stroke-linecap="round" stroke-linejoin="round" stroke-width="1.92" d="M16.33 14.72c-3.535 0-6.4 2.865-6.4 6.4s2.865 6.4 6.4 6.4v0c3.535 0 6.4-2.865 6.4-6.4s-2.865-6.4-6.4-6.4v0zm0 0V4.48m0 0 5.12 5.12m-5.12-5.12L11.21 9.6" style="stroke:var(--color1, #54adff)"/></symbol><symbol id="icon-menu-hamburger" viewBox="0 0 32 32"><path fill="none" stroke="#54adff" stroke-linecap="round" stroke-linejoin="round" stroke-width="2" d="M5.333 9.333h21.333M5.333 16h21.333M5.333 22.667h21.333" style="stroke:var(--color1, #54adff)"/></symbol><symbol id="icon-pawprint" viewBox="0 0 32 32"><path fill="#54adff" d="M20.481 19.149a7.782 7.782 0 0 0-4.382-6.004l-.047-.02a7.649 7.649 0 0 0-3.294-.734 7.73 7.73 0 0 0-4.198 1.232l.031-.018-5.432 3.439a4.92 4.92 0 0 0-1.952 2.36l-.012.033a4.816 4.816 0 0 0-.332 1.773c0 .47.066.925.19 1.355l-.008-.035a4.922 4.922 0 0 0 1.714 2.565l.011.008a4.896 4.896 0 0 0 2.919 1.037l.069.001a9.678 9.678 0 0 1 6.978 3.279l.009.011a4.91 4.91 0 0 0 2.637 1.563l.033.006a4.874 4.874 0 0 0 3.11-.346l-.03.013a4.94 4.94 0 0 0 2.261-2.078l.013-.025a4.895 4.895 0 0 0 .573-3.044l-.859-6.372zm-2.765 9.812a3.041 3.041 0 0 1-3.563-.767 11.609 11.609 0 0 0-3.73-2.818l-.07-.03a11.357 11.357 0 0 0-4.609-1.08H5.73l-.047-.001a3.043 3.043 0 0 1-2.827-2.215l-.005-.021a3.037 3.037 0 0 1 1.297-3.392l.012-.007 5.433-3.44a5.832 5.832 0 0 1 3.164-.922 5.87 5.87 0 0 1 2.537.573l-.036-.015c1.801.85 3.086 2.535 3.359 4.543l.003.031.857 6.373a3.042 3.042 0 0 1-1.745 3.182l-.019.008zM6.295 12.527c1.104.077 2.165-.345 2.992-1.189.787-.803 1.264-1.901 1.347-3.091.08-1.189-.243-2.343-.909-3.247-.703-.948-1.696-1.513-2.799-1.589-2.216-.153-4.16 1.767-4.336 4.281-.137 2.003.891 3.787 2.433 4.507a3.61 3.61 0 0 0 1.272.328zM4.461 7.82c.103-1.48 1.151-2.62 2.336-2.537.213.013.421.069.617.16.303.141.576.369.8.673.404.545.597 1.256.547 2.001-.052.747-.341 1.423-.816 1.908-.435.444-.975.668-1.52.631-1.185-.081-2.067-1.353-1.964-2.835zm9.727 3.709c2.349 1.095 5.276-.191 6.524-2.867 1.248-2.677.352-5.747-1.997-6.841-2.348-1.096-5.275.191-6.523 2.867-1.248 2.677-.352 5.747 1.996 6.84zm3.735-8.008c1.412.657 1.9 2.608 1.089 4.348-.811 1.739-2.62 2.617-4.031 1.96-1.412-.659-1.9-2.609-1.089-4.347.811-1.74 2.619-2.62 4.031-1.961zm3.069 12.631c.305.288.647.517 1.013.689 1.713.799 3.965.331 5.496-1.289.88-.932 1.4-2.109 1.463-3.315.067-1.263-.371-2.405-1.231-3.217-.859-.811-2.024-1.184-3.28-1.047-1.201.131-2.347.715-3.228 1.648-1.859 1.965-1.963 4.896-.233 6.531zm1.596-5.243c.576-.609 1.309-.989 2.067-1.072.701-.076 1.337.119 1.791.547.453.427.683 1.052.645 1.756-.04.76-.377 1.515-.953 2.124-1.147 1.213-2.879 1.451-3.857.525-.977-.925-.84-2.667.308-3.88zm7.639 8.86c-1.063-1.953-3.727-2.564-5.941-1.363-2.213 1.203-3.151 3.769-2.092 5.72a3.685 3.685 0 0 0 1.699 1.58c1.244.58 2.833.548 4.241-.216 2.213-1.203 3.152-3.769 2.093-5.721zm-2.987 4.074c-1.307.708-2.832.435-3.397-.609-.567-1.044.035-2.469 1.339-3.179.867-.471 1.829-.507 2.545-.173.361.168.661.432.852.783.565 1.044-.036 2.469-1.34 3.179z" style="fill:var(--color1, #54adff)"/></symbol><symbol id="icon-plus" viewBox="0 0 32 32"><path fill="none" stroke="#54adff" stroke-linecap="round" stroke-width="2.667" d="M16 26.667V16m0 0V5.333M16 16h10.667M16 16H5.333" style="stroke:var(--color1, #54adff)"/></symbol><symbol id="icon-plus-small" viewBox="0 0 32 32"><path fill="none" stroke="#54adff" stroke-linecap="round" stroke-linejoin="round" stroke-width="2" d="M16 9.333v13.333M9.333 16h13.333" style="stroke:var(--color1, #54adff)"/></symbol><symbol id="icon-round" viewBox="0 0 32 32"><path fill="none" stroke="#54adff" stroke-linejoin="round" stroke-width="2" d="M5.333 10.667a5.333 5.333 0 0 1 5.333-5.333h10.667a5.333 5.333 0 0 1 5.333 5.333v10.667a5.333 5.333 0 0 1-5.333 5.333H10.666a5.333 5.333 0 0 1-5.333-5.333V10.667z" style="stroke:var(--color1, #54adff)"/></symbol><symbol id="icon-search" viewBox="0 0 32 32"><path fill="#54adff" d="M25.96 27.373a1 1 0 1 0 1.414-1.413l-.001-.001-1.413 1.413zM23 14a9 9 0 0 1-9 9v2c6.075 0 11-4.925 11-11h-2zm-9 9a9 9 0 0 1-9-9H3c0 6.075 4.925 11 11 11v-2zm-9-9a9 9 0 0 1 9-9V3C7.925 3 3 7.925 3 14h2zm9-9a9 9 0 0 1 9 9h2c0-6.075-4.925-11-11-11v2zm13.373 20.96-5.583-5.584-1.413 1.413 5.583 5.584 1.413-1.413z" style="fill:var(--color1, #54adff)"/></symbol><symbol id="icon-trash-2" viewBox="0 0 32 32"><path fill="none" stroke="#54adff" stroke-linecap="round" stroke-linejoin="round" stroke-width="2" d="M24 8v16a2.667 2.667 0 0 1-2.667 2.667v0H10.666A2.667 2.667 0 0 1 7.999 24v0V8M20 8V6.667A2.667 2.667 0 0 0 17.333 4v0h-2.667a2.667 2.667 0 0 0-2.667 2.667V8M5.333 8h21.333m-13.333 5.333v8m5.334-8v8" style="stroke:var(--color1, #54adff)"/></symbol><symbol id="icon-user" viewBox="0 0 32 32"><path fill="none" stroke="#ffc107" stroke-linecap="round" stroke-linejoin="round" stroke-width="1.714" d="M25.143 27.429v-2.286a4.571 4.571 0 0 0-4.571-4.571v0h-9.143a4.571 4.571 0 0 0-4.571 4.571v2.286m13.713-16a4.571 4.571 0 1 1-9.142 0v0a4.571 4.571 0 1 1 9.142 0v0z" style="stroke:var(--color3, #ffc107)"/><path fill="none" stroke="#ffc107" stroke-width="1.714" d="M16 .857c8.363 0 15.143 6.78 15.143 15.143S24.363 31.143 16 31.143.857 24.363.857 16 7.637.857 16 .857z" style="stroke:var(--color3, #ffc107)"/></symbol></defs></svg>